<svg viewBox="0 0 82 60" fill="none" xmlns="http://www.w3.org/2000/svg"><path d="M40.8135 59.6855C63.1802 59.6855 81.312 46.3948 81.312 30C81.312 13.6051 63.1802 0.314453 40.8135 0.314453C18.4468 0.314453 0.314941 13.6051 0.314941 30C0.314941 46.3948 18.4468 59.6855 40.8135 59.6855Z" fill="#00338D"/><path d="M0.314941 30C0.314941 13.605 18.4468 0.314453 40.8135 0.314453C63.1802 0.314453 81.312 13.605 81.312 30C81.312 46.3949 63.1802 59.6855 40.8135 59.6855C18.4468 59.6855 0.314941 46.3947 0.314941 30ZM17.9848 17.2506C15.0117 19.4755 10.3978 23.945 10.3978 30C10.3978 36.055 15.0117 40.5245 17.9848 42.7494C23.815 47.1122 32.1363 49.6213 40.8135 49.6213C49.4907 49.6213 57.812 47.1122 63.6422 42.7494C66.6153 40.5245 71.2291 36.055 71.2291 30C71.2291 23.945 66.6111 19.4813 63.6422 17.2506C57.8031 12.8995 49.4907 10.3787 40.8135 10.3787C32.1363 10.3787 23.8152 12.8878 17.9848 17.2506Z" fill="#006643"/><path d="M50.4231 45.2034C50.4231 45.2034 48.6427 45.5802 45.6001 44.8559 42.6048 44.1428 40.8135 45.3476 40.8135 45.3476 40.8135 45.3476 39.0222 44.1428 36.0269 44.8559 32.9843 45.5802 31.2039 45.2034 31.2039 45.2034L32.4271 33.4725C32.4271 33.4725 33.9844 33.7593 36.6341 33.2076 39.2479 32.6634 40.8135 33.5822 40.8135 33.5822 40.8135 33.5822 42.3791 32.6634 44.9928 33.2076 47.6426 33.7593 49.1999 33.4725 49.1999 33.4725L50.4231 45.2034zM32.9788 26.9293L32.6197 25.0242 33.5366 24.1626 32.2949 23.3007C31.814 20.7485 31.2481 17.7464 31.1661 17.3103 31.0139 16.5012 31.1182 15.8729 31.4759 15.4422 31.8667 14.9722 32.5496 14.7338 33.5052 14.7338 34.5516 14.7338 35.8937 15.043 37.1873 15.5824 37.9255 15.89 38.5085 16.1331 39.0066 16.3148 39.1404 16.3637 39.2805 16.3885 39.4229 16.3885 39.7447 16.3885 40.0601 16.2578 40.2885 16.03 40.5197 15.7993 40.6468 15.4927 40.6468 15.1663V14.5589H40.5352C40.3552 14.5589 40.1755 14.5779 39.9997 14.6154V14.1696C40.1757 14.2072 40.3554 14.2263 40.535 14.2263H40.6466V14.115C40.6466 13.9352 40.6276 13.7561 40.59 13.5804H41.0368C40.9992 13.7559 40.9802 13.935 40.9802 14.1148V14.2261C40.9802 14.2261 41.0928 14.2263 41.0934 14.2263 41.2726 14.2263 41.4515 14.2074 41.6271 14.1698V14.6156C41.4515 14.5781 41.2718 14.5591 41.0918 14.5591H40.9802V15.1667C40.9802 15.4929 41.1075 15.7995 41.3385 16.0302 41.5667 16.258 41.8821 16.3887 42.2038 16.3887 42.3463 16.3887 42.4864 16.3639 42.6201 16.315 43.1161 16.1343 43.6969 15.8923 44.4319 15.5859 45.7331 15.0433 47.0751 14.734 48.1217 14.734 49.0774 14.734 49.7603 14.9725 50.1511 15.4424 50.5088 15.8731 50.6131 16.5014 50.4609 17.3105 50.3789 17.7464 49.813 20.7485 49.332 23.3009L48.0904 24.1628 49.0073 25.0244 48.6482 26.9295H32.9788V26.9293zM61.9639 27.7787L59.7387 30 61.9639 32.221H66.8182L64.5928 30 66.8182 27.7787H61.9639zM14.809 30L20.2568 27.9891 18.9164 30 20.2568 32.0108 14.809 30z" fill="#006643"/><path d="M40.8134 60C29.9292 60 19.6929 56.8904 11.9902 51.2443C4.25817 45.5766 0 38.032 0 29.9998C0 21.9678 4.25817 14.4232 11.9902 8.7555C19.6929 3.10959 29.9292 0 40.8134 0C51.6976 0 61.9337 3.10959 69.6367 8.75571C77.3687 14.4234 81.6269 21.968 81.6269 30C81.6269 38.032 77.3687 45.5768 69.6367 51.2443C61.9337 56.8904 51.6976 60 40.8134 60ZM40.8134 0.628736C18.6562 0.628736 0.629904 13.8046 0.629904 29.9998C0.629904 46.1952 18.6562 59.3711 40.8134 59.3711C62.9706 59.3711 80.9972 46.1952 80.9972 29.9998C80.9972 13.8046 62.9708 0.628736 40.8134 0.628736ZM40.8134 49.9356C32.0748 49.9356 23.6852 47.4079 17.7958 43.0009C14.9152 40.8454 10.0829 36.29 10.0829 30C10.0829 23.71 14.9152 19.1546 17.7958 16.9991C23.6854 12.5919 32.075 10.0642 40.8134 10.0642C49.527 10.0642 57.9164 12.5917 63.8305 16.9987C66.7119 19.1636 71.5439 23.7308 71.5439 29.9998C71.5439 36.29 66.7116 40.8452 63.8311 43.0007C57.9417 47.4079 49.5519 49.9356 40.8134 49.9356ZM18.1737 17.5021C15.3873 19.587 10.7128 23.9833 10.7128 29.9998C10.7128 36.0165 15.3873 40.4128 18.1737 42.4977C23.9564 46.825 32.2082 49.3068 40.8134 49.3068C49.4185 49.3068 57.6705 46.8252 63.4532 42.4977C66.2396 40.4128 70.9138 36.0165 70.9138 29.9998C70.9138 24.0035 66.2392 19.5955 63.4524 17.5015C57.646 13.1748 49.394 10.6927 40.8132 10.6927C32.2084 10.6929 23.9566 13.1748 18.1737 17.5021ZM17.9847 17.2506H17.9863H17.9847ZM11.7885 40.7067L13.4519 42.5338L13.1631 42.7958L11.9223 41.4328L10.7231 42.5205L11.7416 43.6391L11.4725 43.8834L10.4539 42.7645L9.07369 44.0163L10.3547 45.4235L10.0659 45.6853L8.36255 43.8142L11.7885 40.7067ZM15.2258 44.1037L15.0676 46.0883L17.005 45.4665L17.4037 45.7719L15.0484 46.5145L14.8313 49.6274L14.2122 49.1531L14.3997 46.6751L11.9924 47.4529L11.5832 47.1393L14.415 46.2539L14.6068 43.6293L15.2258 44.1037ZM20.934 47.8461L21.5059 48.1057L20.3701 50.6C19.9652 51.4896 20.0472 52.1068 20.8541 52.4729C21.5346 52.7815 22.1707 52.5336 22.5812 51.632L23.728 49.1136L24.1073 49.2857L22.9661 51.7919C22.4215 52.9881 21.5598 53.3007 20.6086 52.8691C19.6271 52.4237 19.1936 51.6687 19.6915 50.5748L20.934 47.8461ZM25.9681 49.8412L28.2164 54.179L29.1785 50.9244L29.578 51.0422L28.2305 55.6011L25.9803 51.2697L25.02 54.5179L24.6202 54.4001L25.9681 49.8412ZM31.6019 51.4515L32.2189 51.5695L31.3477 56.1074L30.7307 55.9894L31.6019 51.4515ZM33.7673 51.8585L37.2713 52.2458L37.2276 52.6395L35.7879 52.4806L35.3219 56.6802L34.6975 56.6112L35.1635 52.4116L33.7238 52.2524L33.7673 51.8585ZM41.872 56.9939L41.1909 56.9808L40.616 55.5765L38.7776 55.5412L38.1291 56.9219L37.6993 56.9136L39.9135 52.2022L41.872 56.9939ZM38.9433 55.1946L40.4774 55.2241L39.7571 53.4672L38.9433 55.1946ZM42.4819 52.3456L45.9988 52.0963L46.0269 52.4917L44.5819 52.5941L44.8818 56.8091L44.255 56.8535L43.9551 52.6385L42.5099 52.741L42.4819 52.3456ZM47.5385 51.8855L49.9783 51.4783L50.0427 51.8625L48.2225 52.1663L48.4899 53.7617L49.9839 53.5123L50.0439 53.8704L48.5499 54.1197L48.8577 55.9559L50.7365 55.6422L50.801 56.0265L48.3024 56.4436L47.5385 51.8855ZM53.516 50.6603L54.1738 50.4378L56.6659 53.2548L56.9802 49.4892L57.3872 49.3514L56.9541 54.5163L53.516 50.6603ZM58.7454 48.7302L59.3179 48.472L61.2238 52.6825L60.6513 52.9407L58.7454 48.7302ZM65.698 50.2904L63.5686 49.2477C63.4783 49.3159 63.3847 49.3783 63.2877 49.4349C63.242 49.4616 63.185 49.495 63.0448 49.5695L64.0374 51.2612L63.4952 51.5781L61.1557 47.5907L62.1716 46.997C62.9191 46.5599 63.6987 46.5172 64.15 47.2863C64.4541 47.8047 64.3452 48.3503 64.0217 48.7919L66.3487 49.9102L65.698 50.2904ZM61.8747 47.5758L62.874 49.279C62.9914 49.2179 63.0886 49.1612 63.1228 49.1412C63.762 48.7675 63.878 48.1948 63.5773 47.6821C63.2531 47.1296 62.7307 47.0753 62.217 47.3755L61.8747 47.5758ZM65.1857 45.0572L67.1168 43.5143L67.3607 43.8183L65.9201 44.9692L66.9325 46.232L68.1151 45.2873L68.3425 45.5707L67.1599 46.5156L68.3253 47.9691L69.8125 46.781L70.0564 47.085L68.0788 48.665L65.1857 45.0572ZM70.79 41.1097L70.3751 41.7053C70.0711 41.4308 69.6645 41.2596 69.3052 41.6561C69.008 41.9841 69.0793 42.3776 69.359 42.63C69.6334 42.8779 70.0228 42.891 70.5477 42.7153L71.0955 42.5338C71.7173 42.3296 72.2238 42.2528 72.6799 42.6647C73.2243 43.156 73.1657 44.0375 72.6067 44.6544C71.9813 45.3446 71.2226 45.434 70.6493 44.9253L71.0642 44.3296C71.4859 44.7104 71.98 44.8539 72.4192 44.3691C72.7607 43.9923 72.729 43.5454 72.4002 43.2486C72.1059 42.983 71.7555 42.9959 71.1519 43.1897L70.5345 43.3888C69.9681 43.5716 69.4643 43.5171 69.0866 43.1762C68.6256 42.7601 68.5496 41.9976 69.1264 41.3612C69.6411 40.7934 70.325 40.7077 70.79 41.1097ZM22.1087 9.58857L22.8512 11.3106L22.2742 11.5585L20.4441 7.31427L21.5861 6.82371C22.3817 6.48181 23.1684 6.55362 23.5294 7.39012C23.9111 8.27543 23.2749 9.08772 22.4246 9.45302L22.1087 9.58857ZM21.1597 7.3877L21.9701 9.26745L22.292 9.12908C22.9724 8.83679 23.1557 8.27664 22.9126 7.71286C22.6511 7.10651 22.1317 6.97015 21.5851 7.20515L21.1597 7.3877ZM25.0509 5.49645L27.4161 4.77533L27.5301 5.14769L25.7656 5.68565L26.2389 7.23238L27.6873 6.79083L27.7936 7.13798L26.3452 7.57952L26.8901 9.35963L28.7115 8.80432L28.8254 9.17688L26.4032 9.91535L25.0509 5.49645ZM34.0144 5.14083L32.753 8.46766L30.3686 5.79155L30.8667 8.65989L30.4561 8.7309L29.6431 4.04775L32.7239 7.48775L34.322 3.23828L35.1352 7.92143L34.516 8.02853L34.0144 5.14083ZM37.2339 7.76228L37.0083 3.14711L38.1578 3.09123C39.0826 3.04625 39.5888 3.37847 39.6213 4.04432C39.6512 4.65753 39.124 5.11279 38.5454 5.20053C39.4774 5.16826 39.9675 5.57411 40.0002 6.24661C40.0429 7.117 39.2749 7.66303 38.3435 7.70842L37.2339 7.76228ZM37.6532 3.46601L37.733 5.10109L38.0766 5.08435C38.6446 5.05671 38.9518 4.70473 38.927 4.19702C38.9009 3.66309 38.5383 3.42285 38.0362 3.44726L37.6532 3.46601ZM37.7494 5.43734L37.8444 7.38225L38.2869 7.36067C38.9872 7.32678 39.3364 6.88664 39.3081 6.30652C39.2776 5.68021 38.7798 5.38732 38.2316 5.41395L37.7494 5.43734ZM44.4453 7.76813L43.2395 5.72942C43.1265 5.73689 43.014 5.73769 42.9014 5.73184C42.8486 5.72902 42.7826 5.72579 42.6243 5.71107L42.5231 7.66929L41.8954 7.63681L42.1343 3.02164L43.31 3.08236C44.1753 3.12694 44.8505 3.51866 44.8042 4.40882C44.7733 5.00891 44.3819 5.40507 43.8686 5.5969L45.1981 7.80726L44.4453 7.76813ZM42.7438 3.40328L42.6417 5.37461C42.7735 5.38793 42.8858 5.39377 42.9254 5.39579C43.6651 5.43392 44.0773 5.01899 44.1083 4.42556C44.1414 3.78613 43.7346 3.45432 43.1401 3.42366L42.7438 3.40328ZM51.2203 6.38922C50.9766 7.84135 49.7287 8.56327 48.5544 8.36681C47.3606 8.16711 46.4708 7.11458 46.7212 5.62332C46.965 4.1712 48.2128 3.44947 49.3872 3.64574C50.5811 3.84564 51.4709 4.89817 51.2203 6.38922ZM47.4485 5.6447C47.2333 6.92739 47.8174 7.88209 48.698 8.02934C49.5462 8.17115 50.2949 7.54665 50.4928 6.36804C50.7092 5.0787 50.1173 4.12945 49.2237 3.97998C48.3822 3.83918 47.6454 4.47256 47.4485 5.6447ZM53.9109 4.69202L54.5127 4.87235L53.8569 7.05346L56.4762 5.46054L56.9957 5.61626L54.894 6.88866L55.8109 10.0852L55.0951 9.87077L54.3433 7.22673L53.6859 7.62249L53.1823 9.29791L52.5805 9.11778L53.9109 4.69202ZM59.1207 6.42614L61.3907 7.40646L61.2359 7.76389L59.5424 7.03248L58.899 8.51688L60.2889 9.11717L60.1444 9.4504L58.7545 8.85011L58.0138 10.5586L59.7619 11.3134L59.6071 11.6708L57.2823 10.6667L59.1207 6.42614ZM48.1217 14.6225C46.9534 14.6225 45.5697 14.9906 44.3966 15.4798C43.6614 15.7862 43.0772 16.0298 42.5819 16.2104C42.1767 16.358 41.7224 16.2558 41.4175 15.9514C41.2089 15.7432 41.0917 15.461 41.0917 15.1665V14.6703C41.3104 14.6703 41.5278 14.6995 41.7386 14.7572V14.0278C41.5278 14.0855 41.3102 14.1148 41.0917 14.1148C41.0917 13.8965 41.121 13.6795 41.1788 13.4691H40.4481C40.5059 13.6795 40.5352 13.8967 40.5352 14.1148C40.3165 14.1148 40.0991 14.0855 39.8883 14.0278V14.7572C40.0991 14.6995 40.3167 14.6703 40.5352 14.6703V15.1663C40.5352 15.4608 40.4179 15.743 40.2094 15.9512C39.9044 16.2556 39.4502 16.3578 39.045 16.2102C38.5497 16.0294 37.9654 15.786 37.2302 15.4796C36.0569 14.9904 34.6734 14.6223 33.5052 14.6223C31.8814 14.6223 30.6782 15.3208 31.0563 17.3307C31.1387 17.7692 31.7106 20.804 32.1934 23.3657L33.3597 24.1754L32.4986 24.9844C32.7251 26.1866 32.886 27.0403 32.886 27.0403H48.7407C48.7407 27.0403 48.9015 26.1866 49.1281 24.9844L48.267 24.1754L49.433 23.3659C49.9158 20.8042 50.4877 17.7692 50.5702 17.3309C50.9487 15.321 49.7455 14.6225 48.1217 14.6225ZM36.6632 25.2083L36.6551 24.9871L35.563 24.176L36.5025 23.3647L36.4942 23.1432L37.8708 24.1657L36.6632 25.2083ZM38.6768 22.4334C37.5028 22.6012 36.9863 21.6693 36.9863 21.1634C36.9863 20.6575 37.5507 20.6587 37.6112 21.0751C37.9381 20.9944 38.1471 20.7102 38.098 20.3721C38.0398 19.9711 37.6407 19.6461 37.2066 19.6461C37.0625 19.6461 36.9354 19.6804 36.8285 19.743C36.8368 19.6655 36.8447 19.5878 36.8525 19.5098C36.9578 18.4599 36.0434 17.6895 35.8421 17.3309C35.7451 17.6895 35.0546 18.4599 35.465 19.5098C35.4955 19.5878 35.5262 19.6655 35.557 19.743C35.4319 19.6804 35.2946 19.6461 35.1508 19.6461C34.7167 19.6461 34.4121 19.9711 34.4703 20.3721C34.5194 20.7102 34.8111 20.9942 35.1615 21.0751C35.1008 20.6587 35.7382 20.6559 35.812 21.1634C35.9078 21.823 35.2653 22.4532 34.3596 22.4532C33.454 22.4532 32.7453 21.823 32.5879 21.1634C32.4666 20.6559 33.1052 20.6587 33.2047 21.0751C33.5242 20.9944 33.7064 20.7102 33.6258 20.3721C33.53 19.9711 33.1006 19.6461 32.6665 19.6461C32.5224 19.6461 32.3985 19.6804 32.2973 19.743C32.2983 19.6655 32.2991 19.5878 32.2995 19.5098C32.3068 18.4599 31.7422 18.3919 31.5259 17.3309C31.3948 16.6338 31.4728 16.0183 31.7577 15.6756C32.1536 15.1994 32.9266 15.0993 33.5052 15.0993C34.5233 15.0993 35.8132 15.3981 37.0437 15.9187C38.0733 16.3554 39.1678 17.0211 39.784 18.1728C39.9309 18.4474 39.6795 18.7679 39.3772 18.6922C39.2034 18.6487 39.0326 18.5924 38.8665 18.5232V20.4655C39.1436 20.2206 39.4724 20.0467 39.8248 19.9537C40.1773 19.8608 40.2819 20.0651 40.2819 20.3033C40.2819 21.1971 39.8406 22.267 38.6768 22.4334ZM40.8134 25.2081V24.9869L39.7975 24.1758L40.8134 23.3645V23.1432L42.1064 24.1756L40.8134 25.2081ZM44.9639 25.2083L44.972 24.9871L44.0325 24.176L45.1247 23.3647L45.133 23.1432L46.3405 24.1859L44.9639 25.2083ZM50.1009 17.3311C49.8847 18.3921 49.3203 18.4601 49.3273 19.51C49.3279 19.588 49.3288 19.6657 49.3296 19.7432C49.2283 19.6806 49.1044 19.6463 48.9606 19.6463C48.5265 19.6463 48.097 19.9713 48.0013 20.3723C47.9206 20.7104 48.1029 20.9944 48.4224 21.0753C48.5218 20.6589 49.1602 20.6561 49.0392 21.1636C48.8817 21.8232 48.173 22.4534 47.2675 22.4534C46.3619 22.4534 45.7193 21.8232 45.8151 21.1636C45.8888 20.6561 46.5262 20.6589 46.4656 21.0753C46.816 20.9946 47.1076 20.7104 47.1567 20.3723C47.2149 19.9713 46.9104 19.6463 46.4763 19.6463C46.3322 19.6463 46.1952 19.6806 46.0701 19.7432C46.1008 19.6657 46.1315 19.588 46.1621 19.51C46.5727 18.4601 45.8822 17.6897 45.785 17.3311C45.5837 17.6897 44.6692 18.4601 44.7745 19.51C44.7824 19.588 44.7905 19.6657 44.7986 19.7432C44.6917 19.6806 44.5644 19.6463 44.4205 19.6463C43.9864 19.6463 43.5873 19.9713 43.5291 20.3723C43.48 20.7104 43.6889 20.9944 44.0159 21.0753C44.0763 20.6589 44.6408 20.6577 44.6408 21.1636C44.6408 21.6695 44.1242 22.6014 42.9503 22.4336C41.7865 22.2672 41.3451 21.1973 41.3451 20.3035C41.3451 20.0653 41.4498 19.861 41.8022 19.9539C42.1547 20.0469 42.4835 20.2208 42.7605 20.4657V18.5234C42.5944 18.5926 42.4237 18.6491 42.2499 18.6924C41.9475 18.7681 41.6963 18.4476 41.8431 18.173C42.4592 17.0213 43.5537 16.3556 44.5834 15.9189C45.8141 15.3981 47.1038 15.0995 48.1219 15.0995C48.7005 15.0995 49.4735 15.1996 49.8693 15.6758C50.1541 16.0185 50.2321 16.634 50.1009 17.3311ZM67.5786 27.4645H61.8337L59.6083 29.6855H19.5042L21.055 27.3592L13.9007 29.9998L21.055 32.6406L19.5042 30.3143H59.6083L61.8337 32.5355H67.5786L65.0384 30L67.5786 27.4645ZM15.7169 29.9998L19.4587 28.6189L18.538 29.9998L19.4587 31.3809L15.7169 29.9998ZM60.1838 29.9998L62.0944 28.093H63.6306L61.7203 29.9998L63.6306 31.9068H62.0944L60.1838 29.9998ZM66.0577 31.9068H64.5212L62.6109 29.9998L64.5212 28.093H66.0575L64.1472 29.9998L66.0577 31.9068ZM39.0462 35.0902L39.0324 35.7274C38.3825 35.6415 37.5556 35.6348 36.5787 35.8448C35.5226 36.0717 34.6342 36.1675 33.9336 36.1996L33.9859 35.5658C34.6437 35.5319 35.4721 35.4394 36.4459 35.2302C37.4711 35.0097 38.346 35.0057 39.0462 35.0902ZM36.3231 37.56C35.3205 37.7818 34.4683 37.8799 33.7917 37.9158L33.7394 38.5494C34.4598 38.5155 35.3733 38.414 36.4593 38.174C37.4632 37.9519 38.3144 37.9581 38.9825 38.0489L38.9963 37.4121C38.2764 37.3227 37.3769 37.327 36.3231 37.56ZM36.1998 39.8901C35.1689 40.1241 34.2927 40.2278 33.5973 40.2655L33.5448 40.8997C34.285 40.8638 35.2235 40.7569 36.3394 40.5033C37.3709 40.2691 38.2457 40.2756 38.9324 40.3716L38.9461 39.734C38.2067 39.6396 37.2828 39.6442 36.1998 39.8901ZM36.0767 42.2201C35.0174 42.4666 34.1171 42.5757 33.4031 42.6155L33.3506 43.2496C34.1104 43.2119 35.0738 43.0992 36.2198 42.8325C37.2791 42.5862 38.1774 42.5931 38.8825 42.6941L38.8962 42.0559C38.1372 41.9565 37.1886 41.9613 36.0767 42.2201ZM45.0482 35.8446C46.1045 36.0715 46.9926 36.1673 47.6933 36.1994L47.6409 35.5656C46.9833 35.5317 46.155 35.4392 45.1807 35.23C44.1559 35.0097 43.2811 35.0057 42.5807 35.0902L42.5944 35.7274C43.2445 35.6413 44.0713 35.6348 45.0482 35.8446ZM45.1678 38.174C46.254 38.4142 47.1672 38.5155 47.8877 38.5494L47.8353 37.9156C47.159 37.8799 46.3066 37.7816 45.3042 37.56C44.2503 37.327 43.3508 37.3229 42.631 37.4123L42.6445 38.0457C43.3106 37.9557 44.1608 37.9509 45.1678 38.174ZM45.2874 40.5031C46.4036 40.7567 47.3418 40.8636 48.0821 40.8995L48.0297 40.2665C47.336 40.2286 46.4605 40.1247 45.4273 39.8899C44.3443 39.644 43.4203 39.6394 42.6809 39.7338L42.6947 40.3682C43.3791 40.2732 44.2525 40.2681 45.2874 40.5031ZM45.4073 42.8323C46.5533 43.0992 47.5166 43.2117 48.2765 43.2494L48.2242 42.6165C47.5116 42.5765 46.6123 42.4672 45.5503 42.2199C44.4383 41.9613 43.4899 41.9565 42.7308 42.0557L42.7446 42.6905C43.4476 42.5907 44.3447 42.5852 45.4073 42.8323ZM51.5479 46.1329L50.6985 46.3143C50.6959 46.3149 50.1521 46.4335 49.1802 46.4335C48.0091 46.4335 46.7449 46.2723 45.4222 45.9546C44.8544 45.8182 44.2954 45.7491 43.7609 45.7491C42.2458 45.7491 41.3528 46.3118 41.3439 46.3175L40.8136 46.6781L40.2856 46.3195C40.2359 46.2886 39.3426 45.7493 37.8662 45.7493C37.3315 45.7493 36.7725 45.8184 36.2046 45.9548C34.8822 46.2725 33.6177 46.4337 32.4468 46.4337C31.5116 46.4337 30.9849 46.3268 30.9282 46.3145L30.0792 46.1333L31.439 33.9812L32.0455 34.0943L32.149 33.1021L32.484 33.1638C32.4988 33.1667 34.0239 33.4307 36.5696 32.9004C38.8255 32.431 40.3361 33.0041 40.8132 33.2296C41.2906 33.0041 42.8018 32.4314 45.057 32.9004C47.6029 33.4305 49.1279 33.1665 49.1432 33.1636L49.4775 33.1033L49.5816 34.0972L50.1864 33.9884L51.5479 46.1329ZM40.4986 44.8297V33.7777C40.0576 33.5818 38.6966 33.0993 36.6985 33.5154C34.6997 33.9316 33.3112 33.8815 32.7071 33.8247L31.5486 44.936C32.1512 45.0043 33.7028 45.086 35.9541 44.5503C38.1671 44.0228 39.7476 44.4972 40.4986 44.8297ZM50.0785 44.936L48.9199 33.8247C48.3163 33.8815 46.9276 33.9316 44.9285 33.5154C42.9309 33.0991 41.5702 33.581 41.1283 33.7777V44.8299C41.8792 44.4976 43.46 44.0232 45.673 44.5503C47.9239 45.0858 49.4757 45.0041 50.0785 44.936Z" fill="#EEAF00"/></svg>