<svg xmlns="http://www.w3.org/2000/svg" xmlns:xlink="http://www.w3.org/1999/xlink" version="1.1" id="Layer_1" x="0px" y="0px" style="enable-background:new 0 0 132 80;" xml:space="preserve" viewBox="15.2 2.3 101.4 75.4">
<style type="text/css">
	.st0{fill:#00338D;}
</style>
<g>
	<path class="st0" d="M95,61.8c-0.6-1-1.5-0.9-2.5-0.4l-1.3,0.7l2.9,5l0.7-0.4l-1.2-2.1c0.2-0.1,0.2-0.1,0.3-0.2   c0.1-0.1,0.2-0.1,0.3-0.2l2.6,1.3l0.8-0.5l-2.9-1.4C95.3,63.1,95.4,62.4,95,61.8z M93.7,64.1c0,0-0.2,0.1-0.3,0.2l-1.2-2.1l0.4-0.3   c0.6-0.4,1.3-0.3,1.7,0.4C94.7,62.9,94.5,63.6,93.7,64.1z"/>
	<polygon class="st0" points="88.3,63.6 90.7,68.9 91.4,68.6 89,63.3  "/>
	<path class="st0" d="M103,56c-0.7,0.2-1.1,0.2-1.5-0.1c-0.3-0.3-0.4-0.8-0.1-1.2c0.4-0.5,1-0.3,1.3,0.1l0.5-0.7   c-0.6-0.5-1.4-0.4-2.1,0.3c-0.7,0.8-0.6,1.8,0,2.3c0.5,0.4,1.1,0.5,1.8,0.3l0.8-0.3c0.8-0.2,1.2-0.3,1.6,0.1c0.4,0.4,0.4,0.9,0,1.4   c-0.5,0.6-1.2,0.4-1.7,0l-0.5,0.7c0.7,0.6,1.7,0.5,2.4-0.3c0.7-0.8,0.8-1.9,0.1-2.5c-0.6-0.5-1.2-0.4-2-0.2L103,56z"/>
	<polygon class="st0" points="100.2,62.6 98.8,60.8 100.2,59.6 100,59.2 98.5,60.4 97.2,58.8 99,57.4 98.7,57 96.3,59 99.9,63.5    102.4,61.5 102.1,61.1  "/>
	<polygon class="st0" points="82,11.8 82.8,11.3 83.8,14.7 84.6,14.9 83.5,10.9 86.1,9.3 85.5,9.1 82.2,11.1 83,8.4 82.3,8.1    80.6,13.7 81.4,13.9  "/>
	<polygon class="st0" points="50.3,70.4 47.5,65 45.9,70.7 46.4,70.9 47.6,66.8 50.4,72.2 52,66.5 51.5,66.3  "/>
	<path class="st0" d="M43.3,67.2c-0.5,1.1-1.3,1.4-2.1,1.1c-1-0.5-1.1-1.2-0.6-2.4l1.4-3.1l-0.7-0.3l-1.5,3.4   c-0.6,1.4-0.1,2.3,1.1,2.9c1.2,0.5,2.3,0.2,2.9-1.4l1.4-3.2l-0.5-0.2L43.3,67.2z"/>
	<polygon class="st0" points="28.6,55.8 30.1,54.4 31.6,56.1 32,55.8 29.9,53.5 25.6,57.4 27.8,59.7 28.1,59.4 26.5,57.6 28.2,56.1    29.5,57.5 29.8,57.2  "/>
	<polygon class="st0" points="34,60.3 34.2,57.8 33.4,57.2 33.2,60.5 29.7,61.6 30.2,62 33.2,61 32.9,64.1 33.7,64.7 34,60.8    36.9,59.9 36.4,59.5  "/>
	<polygon class="st0" points="53.5,72.7 54.2,72.9 55.3,67.2 54.5,67  "/>
	<polygon class="st0" points="85.7,69.3 82.6,65.7 81.8,66 86.1,70.9 86.6,64.4 86.1,64.5  "/>
	<polygon class="st0" points="57.2,68 59,68.2 58.4,73.5 59.2,73.6 59.8,68.3 61.5,68.5 61.6,68 57.2,67.5  "/>
	<polygon class="st0" points="72.4,67.8 68.1,68.1 68.1,68.6 69.9,68.5 70.3,73.8 71.1,73.7 70.7,68.4 72.5,68.3  "/>
	<polygon class="st0" points="76,72.7 75.6,70.4 77.5,70 77.4,69.6 75.5,69.9 75.2,67.9 77.5,67.5 77.4,67 74.4,67.6 75.3,73.3    78.4,72.8 78.3,72.3  "/>
	<path class="st0" d="M62.1,73.9l0.5,0l0.8-1.7l2.3,0l0.7,1.8l0.8,0l-2.4-6L62.1,73.9z M63.7,71.7l1-2.2l0.9,2.2L63.7,71.7z"/>
	<polygon class="st0" points="89.6,16.5 87.4,15.5 88.3,13.4 90,14.1 90.2,13.7 88.5,13 89.3,11.1 91.4,12 91.6,11.6 88.8,10.3    86.5,15.7 89.4,16.9  "/>
	<path class="st0" d="M71.3,47.4c1.3,0.3,2.4,0.4,3.3,0.4L74.5,47c-0.8,0-1.8-0.2-3.1-0.4c-1.3-0.3-2.4-0.3-3.2-0.2l0,0.8   C69,47.1,70.1,47.1,71.3,47.4z"/>
	<path class="st0" d="M71.9,55.4c-1.4-0.3-2.6-0.3-3.5-0.2l0,0.8c0.9-0.1,2-0.1,3.3,0.2c1.4,0.3,2.6,0.5,3.6,0.5l-0.1-0.8   C74.3,55.8,73.2,55.7,71.9,55.4z"/>
	<path class="st0" d="M76.9,45.2l-0.1-1.3L76.4,44c0,0-1.9,0.3-5.1-0.3c-2.8-0.6-4.7,0.1-5.3,0.4c-0.6-0.3-2.5-1-5.3-0.4   c-3.2,0.7-5.1,0.3-5.1,0.3l-0.4-0.1l-0.1,1.2L54.3,45l-1.7,15.3l1.1,0.2c0.1,0,0.7,0.2,1.9,0.2c1.5,0,3-0.2,4.7-0.6   c0.7-0.2,1.4-0.3,2.1-0.3c1.8,0,2.9,0.7,3,0.7L66,61l0.7-0.5c0,0,1.1-0.7,3-0.7c0.7,0,1.4,0.1,2.1,0.3c1.6,0.4,3.2,0.6,4.7,0.6   c1.2,0,1.9-0.1,1.9-0.2l1.1-0.2L77.7,45L76.9,45.2z M65.6,58.7c-0.9-0.4-2.9-1-5.7-0.4c-2.8,0.7-4.7,0.6-5.5,0.5l1.4-14   c0.8,0.1,2.5,0.1,5-0.4c2.5-0.5,4.2,0.1,4.7,0.3V58.7z M72,58.3c-2.8-0.7-4.7-0.1-5.7,0.4V44.8c0.5-0.2,2.2-0.9,4.7-0.3   c2.5,0.5,4.2,0.5,5,0.4l1.4,14C76.8,58.9,74.8,59,72,58.3z"/>
	<path class="st0" d="M71.4,50.3c1.4,0.3,2.5,0.4,3.4,0.5L74.7,50c-0.8,0-1.9-0.2-3.1-0.4c-1.3-0.3-2.4-0.3-3.3-0.2l0,0.8   C69.1,50,70.2,50,71.4,50.3z"/>
	<path class="st0" d="M71.6,53.2c1.4,0.3,2.6,0.5,3.5,0.5L75,52.9c-0.9,0-2-0.2-3.2-0.5c-1.3-0.3-2.5-0.3-3.4-0.2l0,0.8   C69.2,52.9,70.3,52.9,71.6,53.2z"/>
	<path class="st0" d="M55.3,31.6l1.5,1l-1.1,1c0.3,1.5,0.5,2.6,0.5,2.6h19.7c0,0,0.2-1.1,0.5-2.6l-1.1-1l1.5-1   c0.6-3.2,1.3-7,1.4-7.6c0.5-2.5-1-3.4-3-3.4c-1.5,0-3.2,0.5-4.6,1.1c-0.9,0.4-1.6,0.7-2.3,0.9c-0.5,0.2-1.1,0.1-1.4-0.3   c-0.3-0.3-0.4-0.6-0.4-1v-0.6c0.3,0,0.5,0,0.8,0.1v-0.9C66.9,20,66.6,20,66.3,20c0-0.3,0-0.5,0.1-0.8h-0.9c0.1,0.3,0.1,0.5,0.1,0.8   c-0.3,0-0.5,0-0.8-0.1v0.9c0.3-0.1,0.5-0.1,0.8-0.1v0.6c0,0.4-0.1,0.7-0.4,1c-0.4,0.4-0.9,0.5-1.4,0.3c-0.6-0.2-1.3-0.5-2.3-0.9   c-1.5-0.6-3.2-1.1-4.6-1.1c-2,0-3.5,0.9-3,3.4C54,24.6,54.7,28.4,55.3,31.6z M60.8,34l0-0.3l-1.4-1l1.2-1l0-0.3l1.7,1.3L60.8,34z    M71.2,34l0-0.3l-1.2-1l1.4-1l0-0.3l1.5,1.3L71.2,34z M67.2,27.4c0.4,0.1,0.8,0.3,1.2,0.6v-2.4c-0.2,0.1-0.4,0.2-0.6,0.2   c-0.4,0.1-0.7-0.3-0.5-0.7c0.8-1.4,2.1-2.3,3.4-2.8c1.5-0.7,3.1-1,4.4-1c0.7,0,1.7,0.1,2.2,0.7c0.4,0.4,0.5,1.2,0.3,2.1   c-0.3,1.3-1,1.4-1,2.7c0,0.1,0,0.2,0,0.3C76.5,27,76.3,27,76.1,27c-0.5,0-1.1,0.4-1.2,0.9c-0.1,0.4,0.1,0.8,0.5,0.9   c0.1-0.5,0.9-0.5,0.8,0.1c-0.2,0.8-1.1,1.6-2.2,1.6c-1.1,0-1.9-0.8-1.8-1.6c0.1-0.6,0.9-0.6,0.8-0.1c0.4-0.1,0.8-0.5,0.9-0.9   C74,27.4,73.6,27,73,27c-0.2,0-0.3,0-0.5,0.1c0-0.1,0.1-0.2,0.1-0.3c0.5-1.3-0.3-2.3-0.5-2.7c-0.3,0.5-1.4,1.4-1.3,2.7   c0,0.1,0,0.2,0,0.3C70.8,27,70.7,27,70.5,27c-0.5,0-1,0.4-1.1,0.9c-0.1,0.4,0.2,0.8,0.6,0.9c0.1-0.5,0.8-0.5,0.8,0.1   c0,0.6-0.6,1.8-2.1,1.6c-1.4-0.2-2-1.6-2-2.7C66.7,27.5,66.8,27.2,67.2,27.4z M66,31.6v-0.3l1.6,1.3L66,34v-0.3l-1.3-1L66,31.6z    M54.7,22c0.5-0.6,1.5-0.7,2.2-0.7c1.3,0,2.9,0.4,4.4,1c1.3,0.5,2.6,1.4,3.4,2.8c0.2,0.3-0.1,0.7-0.5,0.7c-0.2-0.1-0.4-0.1-0.6-0.2   V28c0.3-0.3,0.8-0.5,1.2-0.6c0.4-0.1,0.6,0.1,0.6,0.4c0,1.1-0.5,2.5-2,2.7c-1.5,0.2-2.1-1-2.1-1.6s0.7-0.6,0.8-0.1   c0.4-0.1,0.7-0.5,0.6-0.9c-0.1-0.5-0.6-0.9-1.1-0.9c-0.2,0-0.3,0-0.5,0.1c0-0.1,0-0.2,0-0.3c0.1-1.3-1-2.3-1.3-2.7   c-0.1,0.5-1,1.4-0.5,2.7c0,0.1,0.1,0.2,0.1,0.3C59.3,27,59.1,27,59,27c-0.5,0-0.9,0.4-0.8,0.9c0.1,0.4,0.4,0.8,0.9,0.9   c-0.1-0.5,0.7-0.5,0.8,0.1c0.1,0.8-0.7,1.6-1.8,1.6c-1.1,0-2-0.8-2.2-1.6c-0.2-0.6,0.6-0.6,0.8-0.1c0.4-0.1,0.6-0.5,0.5-0.9   c-0.1-0.5-0.7-0.9-1.2-0.9c-0.2,0-0.3,0-0.5,0.1c0-0.1,0-0.2,0-0.3c0-1.3-0.7-1.4-1-2.7C54.3,23.2,54.4,22.4,54.7,22z"/>
	<path class="st0" d="M15.2,40c0,10.1,5.3,19.6,14.9,26.7c9.6,7.1,22.3,11,35.8,11c13.5,0,26.3-3.9,35.8-11   c9.6-7.1,14.9-16.6,14.9-26.7c0-10.1-5.3-19.6-14.9-26.7c-9.6-7.1-22.3-11-35.8-11c-13.5,0-26.3,3.9-35.8,11   C20.5,20.4,15.2,29.9,15.2,40z M116,40c0,20.4-22.4,37-50,37S16,60.4,16,40C16,19.6,38.4,3,66,3C93.6,3,116,19.6,116,40z"/>
	<path class="st0" d="M37.4,56.4c7.3,5.5,17.8,8.7,28.6,8.7c10.9,0,21.3-3.2,28.6-8.7c3.6-2.7,9.6-8.4,9.6-16.4   c0-7.9-6-13.6-9.6-16.4c-7.4-5.5-17.8-8.7-28.6-8.7c-10.9,0-21.3,3.2-28.6,8.7c-3.6,2.7-9.6,8.4-9.6,16.4S33.8,53.7,37.4,56.4z    M37.8,24.3c7.2-5.4,17.5-8.6,28.2-8.6c10.7,0,20.9,3.1,28.2,8.6c3.5,2.6,9.3,8.2,9.3,15.7c0,7.6-5.8,13.1-9.3,15.7   C87,61.2,76.7,64.3,66,64.3s-21-3.1-28.2-8.6c-3.5-2.6-9.3-8.2-9.3-15.7C28.6,32.4,34.4,26.9,37.8,24.3z"/>
	<path class="st0" d="M75.6,12.8c1.5,0.2,3-0.7,3.3-2.5c0.3-1.9-0.8-3.2-2.3-3.5c-1.5-0.2-3,0.7-3.3,2.5   C73,11.2,74.1,12.5,75.6,12.8z M74.3,9.3c0.2-1.5,1.2-2.3,2.2-2.1c1.1,0.2,1.8,1.4,1.6,3c-0.2,1.5-1.2,2.3-2.2,2.1   C74.7,12.2,74,11,74.3,9.3z"/>
	<path class="st0" d="M39.5,40.4h49.9l2.8,2.8h7.1L96.1,40l3.2-3.2h-7.1l-2.8,2.8H39.5l1.9-2.9L32.5,40l8.9,3.3L39.5,40.4z    M97.4,37.6L95,40l2.4,2.4h-1.9L93.1,40l2.4-2.4H97.4z M92.5,37.6h1.9L92,40l2.4,2.4h-1.9L90.1,40L92.5,37.6z M39.4,41.7L34.8,40   l4.7-1.7L38.3,40L39.4,41.7z"/>
	<path class="st0" d="M57.5,47l-0.1,0.8c0.9,0,2-0.2,3.3-0.4c1.2-0.3,2.2-0.3,3.1-0.1l0-0.8c-0.9-0.1-2-0.1-3.2,0.2   C59.4,46.8,58.3,47,57.5,47z"/>
	<polygon class="st0" points="51.1,13.8 51,13.3 48.7,14 48,11.8 49.8,11.2 49.7,10.8 47.9,11.3 47.3,9.4 49.5,8.7 49.3,8.2    46.4,9.2 48.1,14.7  "/>
	<polygon class="st0" points="53.6,13.1 53,9.5 56,12.9 57.5,8.7 58.2,12.3 58.9,12.2 57.9,6.3 55.9,11.7 52.1,7.3 53.1,13.2  "/>
	<path class="st0" d="M68.3,9.4c0.2,0,0.3,0,0.3,0c0.1,0,0.3,0,0.4,0l1.5,2.6l0.9,0l-1.7-2.8C70.4,9,70.9,8.5,71,7.8   c0.1-1.1-0.8-1.6-1.9-1.7L67.6,6l-0.3,5.8l0.8,0L68.3,9.4z M68.4,6.5l0.5,0c0.7,0,1.2,0.5,1.2,1.3c0,0.7-0.6,1.3-1.5,1.2   c0,0-0.2,0-0.4,0L68.4,6.5z"/>
	<path class="st0" d="M62.9,11.9c1.2-0.1,2.1-0.7,2.1-1.8c0-0.8-0.7-1.4-1.8-1.3c0.7-0.1,1.4-0.7,1.3-1.5c0-0.8-0.7-1.3-1.8-1.2   l-1.4,0.1l0.3,5.8L62.9,11.9z M64.1,10.2c0,0.7-0.4,1.3-1.3,1.3l-0.6,0l-0.1-2.4l0.6,0C63.5,9,64.1,9.4,64.1,10.2z M62.5,6.6   c0.6,0,1.1,0.3,1.1,0.9c0,0.6-0.4,1.1-1.1,1.1l-0.4,0l-0.1-2.1L62.5,6.6z"/>
	<path class="st0" d="M60.3,52.5c-1.3,0.3-2.4,0.4-3.2,0.5L57,53.7c0.9,0,2.1-0.2,3.5-0.5c1.3-0.3,2.4-0.3,3.2-0.2l0-0.8   C62.8,52.1,61.6,52.1,60.3,52.5z"/>
	<path class="st0" d="M43.7,16.5l-0.9-2.2l0.4-0.2c1.1-0.5,1.8-1.5,1.4-2.6c-0.4-1.1-1.4-1.1-2.4-0.7l-1.4,0.6l2.3,5.3L43.7,16.5z    M41.6,11.5l0.5-0.2c0.7-0.3,1.3-0.1,1.7,0.6c0.3,0.7,0.1,1.4-0.8,1.8l-0.4,0.2L41.6,11.5z"/>
	<path class="st0" d="M60.4,49.5c-1.2,0.3-2.3,0.4-3.1,0.4l-0.1,0.8c0.9,0,2-0.2,3.4-0.5c1.2-0.3,2.3-0.3,3.1-0.2l0-0.8   C62.8,49.2,61.7,49.2,60.4,49.5z"/>
	<path class="st0" d="M60.1,55.4c-1.3,0.3-2.4,0.4-3.3,0.5l-0.1,0.8c0.9,0,2.1-0.2,3.6-0.5c1.3-0.3,2.4-0.3,3.3-0.2l0-0.8   C62.7,55.1,61.5,55.1,60.1,55.4z"/>
</g>
</svg>